<svg xmlns="http://www.w3.org/2000/svg" viewBox="0 0 572.83 128.78"><defs><style>.cls-1{fill:#a1a1a1;}.cls-2{fill:#3b5a6f;}.cls-3{fill:#62ac1e;}</style></defs><title>defions-logo</title><g id="Layer_6" data-name="Layer 6"><path class="cls-1" d="M91.31,65.58l8,0,2.2-12H91.21l-1.79,9.7A1.84,1.84,0,0,0,91.31,65.58Z"/><polygon class="cls-2" points="107.2 27.79 95.99 27.76 94.16 37.72 105.36 37.73 107.2 27.79"/><polygon class="cls-1" points="107.2 27.79 95.99 27.76 94.16 37.72 105.36 37.73 107.2 27.79"/><polygon class="cls-1" points="87.92 40.52 76.72 40.5 74.88 50.45 86.08 50.48 87.92 40.52"/><polygon class="cls-1" points="85.64 86.55 74.43 86.53 72.6 96.47 83.8 96.5 85.64 86.55"/><path class="cls-1" d="M127.1,27.7a36.42,36.42,0,0,0-3.73-1.27l-2.68,14.51-14.71,0L103.8,52.72l13.78,0L115.2,65.62l24.82,0c1.54-8.64,1.26-16.47-.85-23.31C136.89,35,132.83,30.05,127.1,27.7Z"/><path class="cls-1" d="M92.08,104.71h8.18l.5-2.73-8.18,0Zm2.84-15.38,8.92,0,1.45-7.9-8.91,0ZM126,111.53l5.79,0a2.23,2.23,0,0,0,1-.28l1.2-6.49A43.61,43.61,0,0,1,126,111.53Zm-15-42.3-1.84,10,9.15,0L116,91.9l-11.7,0-1.73,9.38,11,0-.4,2.11c6.26-1.8,11.68-5.93,16.5-12.59a58,58,0,0,0,9.65-21.52Z"/><path class="cls-3" d="M156.73,32q-5.14-16.65-18.29-22.07A54.32,54.32,0,0,0,118.14,6l-59.87-.1L55.56,20.6l14,0v0l45,.09a40.89,40.89,0,0,1,15.26,2.93c6.34,2.61,10.85,8.08,13.39,16.28,2.37,7.72,2.67,16.6.86,26.38a65.73,65.73,0,0,1-11.43,27.36c-6,8.28-12.84,13-20.86,14.58a61.49,61.49,0,0,1-10.77.87L59.84,109v0l-20.62,0-2.72,14.64,63.4.12a81.71,81.71,0,0,0,14.19-1.15q16.56-3.18,28.74-20,11.27-15.28,15.08-36Q161.47,47.32,156.73,32Z"/><path class="cls-3" d="M86,31.78c-.17.94-.72,1.71-1.24,1.71L37.26,33.4c-.53,0-.79-.77-.62-1.71h0c.17-.94.73-1.7,1.23-1.7l47.57.09c.5,0,.78.76.6,1.7Z"/><path class="cls-3" d="M63.92,41.22c-.19.94-.74,1.7-1.25,1.7l-47.55-.09c-.52,0-.8-.75-.61-1.71h0c.17-.94.73-1.71,1.24-1.69l47.54.08c.52,0,.79.77.63,1.71Z"/><path class="cls-3" d="M68.53,50.7c-.17.94-.72,1.71-1.23,1.71l-47.55-.09c-.52,0-.79-.77-.62-1.72h0c.17-.93.73-1.69,1.24-1.69L67.93,49c.51,0,.78.77.6,1.71Z"/><path class="cls-3" d="M80.18,60.2c-.18.94-.74,1.7-1.25,1.7l-47.57-.09c-.5,0-.78-.75-.6-1.7h0c.18-.94.73-1.7,1.25-1.7l47.55.08c.51,0,.78.78.62,1.71Z"/><path class="cls-3" d="M65.45,69.65c-.17.94-.73,1.7-1.24,1.7l-47.57-.08c-.5,0-.78-.77-.6-1.71h0c.18-1,.73-1.7,1.24-1.71l47.55.1c.52,0,.79.75.62,1.7Z"/><path class="cls-3" d="M78.32,79.15c-.18.94-.74,1.7-1.25,1.7l-47.56-.08c-.5,0-.78-.77-.6-1.71h0c.16-.94.72-1.71,1.24-1.7l47.55.08c.52,0,.78.77.62,1.71Z"/><path class="cls-3" d="M69.15,88.61c-.17.94-.73,1.71-1.24,1.7l-47.56-.08c-.51,0-.78-.77-.61-1.71h0c.17-.94.73-1.7,1.25-1.7l47.54.09c.52,0,.81.76.62,1.7Z"/><path class="cls-3" d="M58.14,98.07c-.18.94-.75,1.7-1.25,1.7L9.33,99.68c-.52,0-.79-.76-.61-1.7h0c.18-1,.73-1.7,1.24-1.7l47.56.09c.52,0,.79.76.62,1.7Z"/></g><g id="Layer_5" data-name="Layer 5"><polygon class="cls-3" points="343.52 108.12 184.9 108.12 185.51 105.37 344.13 105.37 343.52 108.12"/></g><g id="Layer_4" data-name="Layer 4"><path class="cls-3" d="M368.24,111.66c-1.81,2.66-5.37,4.31-9.31,4.35a9,9,0,0,1-7.72-3.88l2.89-2.31c.62,1.94,3.06,3.31,5.55,3.31,2.72,0,4.57-1,5.63-2.59a3.86,3.86,0,0,0,.65-2.44c-.18-1.81-1.9-2.22-4.28-3-2.69-.87-5.84-1.6-6.18-4.65a7,7,0,0,1,1.62-4.94c2.66-3.44,7.31-3.54,7.85-3.54a9,9,0,0,1,7.72,3.91l-2.88,2.29a6.06,6.06,0,0,0-9.91-1.32,4,4,0,0,0-.87,2.63c.18,1.72,1.87,2.12,4.19,2.87,2.74.9,5.9,1.59,6.31,4.75A7.13,7.13,0,0,1,368.24,111.66Z"/><path class="cls-3" d="M400.09,104c-1.7,6.82-8.35,12-14.91,12s-10.6-5.22-8.91-12,8.35-12,14.9-12S401.78,97.16,400.09,104Zm-20.35,0c-1.19,4.79,1.22,9.16,6.16,9.16s9.53-4.37,10.72-9.16-1.23-9.12-6.16-9.12S380.93,99.22,379.74,104Z"/><path class="cls-3" d="M419.08,112.82l-.69,2.87H403.1l5.83-23.43h3.46l-5.12,20.56Z"/><path class="cls-3" d="M449,92.26l-3.55,14.25c-.93,3.78-3.86,9.5-11.74,9.5s-8-5.72-7.07-9.5l3.54-14.25h3.47l-3.53,14.25c-.34,1.4-1.35,6.62,4.31,6.62s7.22-5.22,7.56-6.62l3.53-14.25Z"/><path class="cls-3" d="M470.6,95.13h-7.25l-5.12,20.56h-3.47l5.12-20.56h-7.25l.69-2.87h18Z"/><path class="cls-3" d="M475.6,115.69h-3.47l5.81-23.43h3.47Z"/><path class="cls-3" d="M509.19,104c-1.68,6.82-8.34,12-14.9,12s-10.61-5.22-8.91-12,8.34-12,14.91-12S510.88,97.16,509.19,104Zm-20.34,0c-1.19,4.79,1.21,9.16,6.16,9.16s9.52-4.37,10.71-9.16-1.21-9.12-6.16-9.12S490,99.22,488.85,104Z"/><path class="cls-3" d="M533.4,115.69h-4.19L521.28,97l-4.62,18.65h-3.51L519,92.26h4.18l8,18.65,4.63-18.65h3.46Z"/><path class="cls-3" d="M558.19,111.66c-1.83,2.66-5.39,4.31-9.32,4.35a9,9,0,0,1-7.72-3.88l2.88-2.31c.62,1.94,3.06,3.31,5.56,3.31,2.72,0,4.56-1,5.62-2.59a3.83,3.83,0,0,0,.66-2.44c-.19-1.81-1.91-2.22-4.28-3-2.69-.87-5.85-1.6-6.19-4.65A7,7,0,0,1,547,95.51c2.65-3.44,7.31-3.54,7.84-3.54a9,9,0,0,1,7.72,3.91l-2.89,2.29a6,6,0,0,0-9.89-1.32,3.92,3.92,0,0,0-.88,2.63c.19,1.72,1.88,2.12,4.19,2.87,2.75.9,5.9,1.59,6.3,4.75A6.94,6.94,0,0,1,558.19,111.66Z"/></g><g id="Layer_3" data-name="Layer 3"><path class="cls-1" d="M209.32,80.43H185.21l14.9-60.09h24.12c16.25.08,26,13.54,21.86,30S225.59,80.35,209.32,80.43Zm24-30.05c2.4-9.69-2-19.23-11.79-19.39H210.28l-9.61,38.78h11.21C221.74,69.69,230.87,60.07,233.28,50.38Z"/><path class="cls-1" d="M295.29,69.77l-2.65,10.66H249.22l14.9-60.09h42L303.46,31H274.3l-3.21,12.9H295l-2.63,10.74H268.44l-3.75,15.14Z"/><path class="cls-1" d="M328.47,31,325,44.85H348.8L346.16,55.5H322.37L316.2,80.43H303.38l14.91-60.09h41.9L357.54,31Z"/><path class="cls-1" d="M366.83,80.43H354l14.9-60.09h12.83Z"/><path class="cls-1" d="M444.23,50.38c-4.33,17.47-21.48,30.77-38.54,30.77s-27.47-13.3-23.15-30.77S403.93,19.7,421,19.7,448.56,33,444.23,50.38Zm-48.87,0c-2.56,10.18,2.4,20.11,13,20.11,10.74,0,20.52-9.77,23.07-20.11s-2.31-20-13-20C407.77,30.35,397.92,40.13,395.36,50.38Z"/><path class="cls-1" d="M500.24,80.43H486.53L469.71,41l-9.78,39.43H447l14.9-60.09h13.63l16.91,39.5,9.76-39.5h12.9Z"/><path class="cls-1" d="M559.27,63.84c-2.95,11.78-14.57,17.31-27.47,17.31-10.58,0-16.27-4.4-21-11.29L522,61c1,4.48,6.41,9.53,12.42,9.53,4.4-.08,10.57-1.2,11.94-6.65,1.35-5.28-4.17-7.45-8.75-9-8.32-2.72-18.26-7.21-15.38-18.59C525,25.39,536.6,19.7,547.11,19.7A24.48,24.48,0,0,1,568,31.07L557.2,39.73c-1.84-3.61-6-9.38-12.75-9.38-3.84,0-8.33,1.69-9.36,6-1.29,4.89,4.24,6.9,8.49,8.33C552.47,47.58,562.16,52.22,559.27,63.84Z"/></g></svg>